<svg width="45" height="40" viewBox="0 0 45 40" fill="none" xmlns="http://www.w3.org/2000/svg">
<path d="M12.8047 10.6953C10.5078 8.36719 10.5078 4.58594 12.8047 2.25781C15.1016 -0.0703126 18.8203 -0.0703126 21.1172 2.25781L22.5 3.66406L23.8828 2.25781C26.1797 -0.0703126 29.8984 -0.0703126 32.1953 2.25781C34.4922 4.58594 34.4922 8.36719 32.1953 10.6953L24.2578 18.7578C23.7734 19.25 23.1406 19.4922 22.5 19.4922C21.8594 19.4922 21.2266 19.25 20.7422 18.7578L12.8047 10.6953ZM44.3906 26.2734C45.4141 27.6641 45.1172 29.6172 43.7266 30.6406L33.8359 37.9297C32.0078 39.2734 29.8047 40 27.5312 40H15H2.5C1.11719 40 0 38.8828 0 37.5V32.5C0 31.1172 1.11719 30 2.5 30H5.375L8.88281 27.1875C10.6562 25.7656 12.8594 25 15.1328 25H21.25H22.5H27.5C28.8828 25 30 26.1172 30 27.5C30 28.8828 28.8828 30 27.5 30H22.5H21.25C20.5625 30 20 30.5625 20 31.25C20 31.9375 20.5625 32.5 21.25 32.5H30.6719L40.0234 25.6094C41.4141 24.5859 43.3672 24.8828 44.3906 26.2734ZM15.125 30H15.0547C15.0781 30 15.1016 30 15.125 30Z" fill="#AF42AE"/>
</svg>
