<svg width="43" height="40" viewBox="0 0 43 40" fill="none" xmlns="http://www.w3.org/2000/svg">
<path d="M24.5078 28.6797C26.6406 28.375 28.5625 27.1641 29.7578 25.3282L42.3906 5.7891C43.375 4.26566 43.125 2.25004 41.7969 1.00785C40.4688 -0.234339 38.4453 -0.343714 36.9922 0.750036L18.5 14.625C16.625 16.0313 15.5156 18.2266 15.5 20.5703L24.5078 28.6797ZM22.9766 30.6641L13.9141 22.5078C9.24219 22.6797 5.5 26.5313 5.5 31.25C5.5 31.5547 5.51563 31.8594 5.54688 32.1563C5.6875 33.5235 4.75 35 3.375 35H3C1.61719 35 0.5 36.1172 0.5 37.5C0.5 38.8828 1.61719 40 3 40H14.25C19.0859 40 23 36.086 23 31.25C23 31.0547 22.9922 30.8594 22.9844 30.6641H22.9766Z" fill="#AF42AE"/>
</svg>
