<svg width="45" height="46" viewBox="0 0 45 46" fill="none" xmlns="http://www.w3.org/2000/svg">
<path d="M40.7812 23C40.7812 18.1515 38.8552 13.5016 35.4268 10.0732C31.9984 6.6448 27.3485 4.71875 22.5 4.71875C17.6515 4.71875 13.0016 6.6448 9.5732 10.0732C6.1448 13.5016 4.21875 18.1515 4.21875 23C4.21875 27.8485 6.1448 32.4984 9.5732 35.9268C13.0016 39.3552 17.6515 41.2812 22.5 41.2812C27.3485 41.2812 31.9984 39.3552 35.4268 35.9268C38.8552 32.4984 40.7812 27.8485 40.7812 23ZM0 23C0 17.0326 2.37053 11.3097 6.5901 7.0901C10.8097 2.87053 16.5326 0.5 22.5 0.5C28.4674 0.5 34.1903 2.87053 38.4099 7.0901C42.6295 11.3097 45 17.0326 45 23C45 28.9674 42.6295 34.6903 38.4099 38.9099C34.1903 43.1295 28.4674 45.5 22.5 45.5C16.5326 45.5 10.8097 43.1295 6.5901 38.9099C2.37053 34.6903 0 28.9674 0 23ZM30.7178 27.6055C32.3613 27.2188 33.873 28.6602 32.959 30.0752C30.7969 33.4238 26.9209 35.6562 22.4912 35.6562C18.0615 35.6562 14.1855 33.4238 12.0234 30.0752C11.1094 28.6602 12.6211 27.2188 14.2646 27.6055C16.8047 28.2031 19.582 28.5283 22.4912 28.5283C25.4004 28.5283 28.1777 28.2031 30.7178 27.6055ZM18.9229 12.5498C20.4873 12.9717 21.4189 14.5801 20.9971 16.1357L19.4678 21.8486C19.2656 22.5957 18.4922 23.0439 17.7451 22.8418L12.0234 21.3125C10.459 20.8906 9.52734 19.2822 9.94922 17.7266C10.3711 16.1709 11.9795 15.2305 13.5352 15.6523L14.9502 16.0303L15.3281 14.6152C15.75 13.0508 17.3584 12.1191 18.9141 12.541L18.9229 12.5498ZM29.6719 14.624L30.0498 16.0391L31.4648 15.6611C33.0293 15.2393 34.6377 16.1709 35.0508 17.7354C35.4639 19.2998 34.541 20.9082 32.9766 21.3213L27.2549 22.8506C26.5078 23.0527 25.7344 22.6045 25.5322 21.8574L24.0029 16.1445C23.5811 14.5801 24.5127 12.9717 26.0772 12.5586C27.6416 12.1455 29.25 13.0684 29.6719 14.6328V14.624Z" fill="#AF42AE"/>
</svg>
