<svg width="45" height="46" viewBox="0 0 45 46" fill="none" xmlns="http://www.w3.org/2000/svg">
<g clip-path="url(#clip0_1020_1192)">
<path d="M4.21875 20.1875C4.21875 11.6445 11.1445 4.71875 19.6875 4.71875H21.7969C27.0791 4.71875 31.9658 7.94434 34.0664 12.4795C34.4092 13.2178 34.7256 13.9736 35.0684 14.7559L35.2002 15.0635C35.5781 15.9512 35.9824 16.8828 36.4219 17.7969C37.3096 19.625 38.3994 21.4883 39.9902 23.0791L40.377 23.4658C40.6318 23.7207 40.7812 24.0723 40.7812 24.4326C40.7812 25.1885 40.166 25.8037 39.4102 25.8037H37.2656C36.0967 25.8037 35.1562 26.7441 35.1562 27.9131V34.2412C35.1562 35.0146 34.5234 35.6475 33.75 35.6475H26.0156C24.8467 35.6475 23.9062 36.5879 23.9062 37.7568V43.3818C23.9062 44.5508 24.8467 45.4912 26.0156 45.4912C27.1846 45.4912 28.125 44.5508 28.125 43.3818V39.875H33.75C36.8525 39.875 39.375 37.3525 39.375 34.25V30.0312H39.4102C42.4951 30.0312 45 27.5264 45 24.4414C45 22.9561 44.4111 21.541 43.3652 20.4863L42.9785 20.0996C41.8623 18.9834 41.0098 17.5947 40.2188 15.96C39.8232 15.1426 39.4541 14.2988 39.0762 13.4111L38.9443 13.1035C38.6104 12.3213 38.2588 11.5039 37.8896 10.7041C35.1035 4.68359 28.7227 0.5 21.7969 0.5H19.6875C8.81543 0.5 0 9.31543 0 20.1875C0 24.8984 1.66113 29.2314 4.4209 32.624C5.20312 33.5908 5.625 34.5928 5.625 35.5332V43.3906C5.625 44.5596 6.56543 45.5 7.73438 45.5C8.90332 45.5 9.84375 44.5596 9.84375 43.3906V35.5332C9.84375 33.3447 8.88574 31.4199 7.69043 29.9609C5.51953 27.2891 4.21875 23.8965 4.21875 20.1875ZM29.584 17.7178C30.1377 17.4014 30.4189 16.7422 30.1816 16.1357C29.9971 15.6523 29.7773 15.1865 29.5312 14.7383L29.3291 14.3867C29.0566 13.9385 28.7578 13.5166 28.4326 13.1123C28.0283 12.6113 27.3164 12.5234 26.7627 12.8486L26.5078 12.998C25.6992 13.4639 24.7148 13.3496 23.9062 12.8838C23.0977 12.418 22.4912 11.6094 22.4912 10.6777V10.3789C22.4912 9.7373 22.0605 9.16602 21.4277 9.06934C20.8564 8.98145 20.2764 8.9375 19.6787 8.9375C19.0811 8.9375 18.501 8.98145 17.9297 9.06934C17.2969 9.16602 16.8662 9.7373 16.8662 10.3789V10.6777C16.8662 11.6094 16.2598 12.418 15.4512 12.8838C14.6426 13.3496 13.6582 13.4639 12.8496 12.998L12.5947 12.8486C12.041 12.5322 11.3291 12.6201 10.9248 13.1123C10.5996 13.5166 10.3008 13.9473 10.0283 14.3955L9.82617 14.7383C9.58008 15.1865 9.36035 15.6523 9.17578 16.1357C8.94727 16.7334 9.21973 17.3926 9.77344 17.7178L10.0283 17.8672C10.8369 18.333 11.2324 19.2559 11.2324 20.1875C11.2324 21.1191 10.8369 22.042 10.0283 22.5078L9.76465 22.6572C9.21094 22.9736 8.92969 23.6328 9.16699 24.2393C9.35156 24.7227 9.57129 25.1797 9.81738 25.6279L10.0283 25.9883C10.3008 26.4365 10.5908 26.8584 10.916 27.2627C11.3203 27.7637 12.0322 27.8516 12.5859 27.5264L12.8408 27.377C13.6494 26.9111 14.6338 27.0254 15.4424 27.4912C16.251 27.957 16.8574 28.7656 16.8574 29.6973V29.9961C16.8574 30.6377 17.2881 31.209 17.9209 31.3057C18.4922 31.3936 19.0723 31.4375 19.6699 31.4375C20.2676 31.4375 20.8477 31.3936 21.4189 31.3057C22.0518 31.209 22.4824 30.6377 22.4824 29.9961V29.6973C22.4824 28.7656 23.0889 27.957 23.8975 27.4912C24.7061 27.0254 25.6904 26.9111 26.499 27.377L26.7539 27.5264C27.3076 27.8428 28.0195 27.7549 28.4238 27.2627C28.749 26.8584 29.0479 26.4365 29.3115 25.9883L29.5225 25.6191C29.7686 25.1709 29.9883 24.7139 30.1728 24.2305C30.4014 23.6328 30.1289 22.9736 29.5752 22.6484L29.3115 22.499C28.5029 22.0332 28.1074 21.1104 28.1074 20.1787C28.1074 19.2471 28.5029 18.3242 29.3115 17.8584L29.5752 17.709L29.584 17.7178ZM16.1719 20.1875C16.1719 19.2551 16.5423 18.3609 17.2016 17.7016C17.8609 17.0423 18.7551 16.6719 19.6875 16.6719C20.6199 16.6719 21.5141 17.0423 22.1734 17.7016C22.8327 18.3609 23.2031 19.2551 23.2031 20.1875C23.2031 21.1199 22.8327 22.0141 22.1734 22.6734C21.5141 23.3327 20.6199 23.7031 19.6875 23.7031C18.7551 23.7031 17.8609 23.3327 17.2016 22.6734C16.5423 22.0141 16.1719 21.1199 16.1719 20.1875Z" fill="#AF42AE"/>
</g>
<defs>
<clipPath id="clip0_1020_1192">
<rect width="45" height="45" fill="white" transform="translate(0 0.5)"/>
</clipPath>
</defs>
</svg>
