<svg width="20" height="20" viewBox="0 0 20 20" fill="none" xmlns="http://www.w3.org/2000/svg">
<path d="M16.8135 7.99625L10.4502 13.8289C10.3911 13.8832 10.3209 13.9262 10.2437 13.9555C10.1664 13.9849 10.0836 14 10 14C9.91638 14 9.83357 13.9849 9.75632 13.9555C9.67907 13.9262 9.60889 13.8832 9.54979 13.8289L3.18648 7.99625C3.06708 7.88681 3 7.73837 3 7.58359C3 7.42881 3.06708 7.28037 3.18648 7.17093C3.30588 7.06149 3.46783 7 3.63669 7C3.80554 7 3.96749 7.06149 4.08689 7.17093L10 12.5917L15.9131 7.17093C15.9722 7.11674 16.0424 7.07375 16.1197 7.04442C16.1969 7.01509 16.2797 7 16.3633 7C16.4469 7 16.5297 7.01509 16.607 7.04442C16.6842 7.07375 16.7544 7.11674 16.8135 7.17093C16.8726 7.22512 16.9195 7.28946 16.9515 7.36026C16.9835 7.43107 17 7.50695 17 7.58359C17 7.66023 16.9835 7.73612 16.9515 7.80692C16.9195 7.87773 16.8726 7.94206 16.8135 7.99625Z" fill="#1C1F33"/>
</svg>
