<svg width="32" height="32" viewBox="0 0 32 32" fill="none" xmlns="http://www.w3.org/2000/svg">
<path fill-rule="evenodd" clip-rule="evenodd" d="M0 16C0 7.16344 7.16344 0 16 0C24.8366 0 32 7.16344 32 16C32 24.8366 24.8366 32 16 32C7.16344 32 0 24.8366 0 16Z" fill="#A8AEC1"/>
<path d="M23.5 10.375L16 17.25L8.5 10.375" stroke="#FFF4E9" stroke-width="1.66667" stroke-linecap="round" stroke-linejoin="round"/>
<path d="M8.5 10.375H23.5V21C23.5 21.1658 23.4342 21.3247 23.3169 21.4419C23.1997 21.5592 23.0408 21.625 22.875 21.625H9.125C8.95924 21.625 8.80027 21.5592 8.68306 21.4419C8.56585 21.3247 8.5 21.1658 8.5 21V10.375Z" stroke="#FFF4E9" stroke-width="1.66667" stroke-linecap="round" stroke-linejoin="round"/>
<path d="M14.6328 16L8.69531 21.4453" stroke="#FFF4E9" stroke-width="1.66667" stroke-linecap="round" stroke-linejoin="round"/>
<path d="M23.3047 21.4453L17.3672 16" stroke="#FFF4E9" stroke-width="1.66667" stroke-linecap="round" stroke-linejoin="round"/>
</svg>
