<svg width="68" height="68" viewBox="0 0 68 68" fill="none" xmlns="http://www.w3.org/2000/svg">
<path d="M2 66V2.94272H10.4394L27.7577 28.6056H44.9002C51.3001 27.9352 52.5484 22.3208 52.3726 19.5974C51.81 13.6478 47.1566 12.1604 44.9002 12.1604H17.9997V2H48.9441C60.6889 4.01113 63.3907 14.5696 63.2735 19.5974C62.8515 27.0553 58.3505 31.4337 56.1527 32.6907C64.1702 37.0481 66.0573 45.1904 65.9987 48.7169C65.1548 62.1244 54.3359 65.6858 49.032 65.7905H18.0876V56.2586H34.4389L12.1097 23.7872V66H2Z" stroke="#E8DBC5" stroke-width="4"/>
<path d="M44.6921 56.2831L33 39H39.4175H45.8349C51.8831 39 53.8054 44.6563 54.0106 47.4845C53.4479 55.6966 47.5638 56.772 44.6921 56.2831Z" stroke="#E8DBC5" stroke-width="4"/>
</svg>
