<svg width="20" height="20" viewBox="0 0 20 20" fill="none" xmlns="http://www.w3.org/2000/svg">
<path opacity="0.2" d="M10.0002 2.5C8.48265 2.49956 7.00064 2.9595 5.74996 3.81908C4.49928 4.67866 3.53879 5.89743 2.99537 7.31439C2.45195 8.73134 2.35117 10.2798 2.70634 11.7553C3.0615 13.2307 3.85591 14.5637 4.98462 15.5781C5.45492 14.652 6.17249 13.8741 7.05778 13.3308C7.94308 12.7875 8.96152 12.5 10.0002 12.5C9.38217 12.5 8.77799 12.3167 8.26408 11.9733C7.75018 11.63 7.34964 11.1419 7.11312 10.5709C6.87659 9.99987 6.81471 9.37153 6.93529 8.76534C7.05586 8.15915 7.35349 7.60233 7.79053 7.16529C8.22757 6.72825 8.78439 6.43062 9.39058 6.31005C9.99677 6.18947 10.6251 6.25135 11.1961 6.48788C11.7671 6.7244 12.2552 7.12494 12.5986 7.63884C12.942 8.15275 13.1252 8.75693 13.1252 9.375C13.1252 10.2038 12.796 10.9987 12.2099 11.5847C11.6239 12.1708 10.829 12.5 10.0002 12.5C11.039 12.5 12.0574 12.7875 12.9427 13.3308C13.828 13.8741 14.5456 14.652 15.0159 15.5781C16.1446 14.5637 16.939 13.2307 17.2941 11.7553C17.6493 10.2798 17.5485 8.73134 17.0051 7.31439C16.4617 5.89743 15.5012 4.67866 14.2505 3.81908C12.9998 2.9595 11.5178 2.49956 10.0002 2.5Z" fill="#1C1F33"/>
<path d="M10 17.5C14.1421 17.5 17.5 14.1421 17.5 10C17.5 5.85786 14.1421 2.5 10 2.5C5.85786 2.5 2.5 5.85786 2.5 10C2.5 14.1421 5.85786 17.5 10 17.5Z" stroke="#1C1F33" stroke-width="2" stroke-linecap="round" stroke-linejoin="round"/>
<path d="M10 12.5C11.7259 12.5 13.125 11.1009 13.125 9.375C13.125 7.64911 11.7259 6.25 10 6.25C8.27411 6.25 6.875 7.64911 6.875 9.375C6.875 11.1009 8.27411 12.5 10 12.5Z" stroke="#1C1F33" stroke-width="2" stroke-linecap="round" stroke-linejoin="round"/>
<path d="M4.98438 15.5781C5.45462 14.6519 6.17216 13.874 7.05745 13.3306C7.94275 12.7872 8.96123 12.4995 10 12.4995C11.0388 12.4995 12.0572 12.7872 12.9425 13.3306C13.8278 13.874 14.5454 14.6519 15.0156 15.5781" stroke="#1C1F33" stroke-width="2" stroke-linecap="round" stroke-linejoin="round"/>
</svg>
